<mxfile host="65bd71144e">
    <diagram id="1olxxwsUGK6A3NE__6UW" name="第 1 页">
        <mxGraphModel dx="1002" dy="576" grid="0" gridSize="10" guides="1" tooltips="1" connect="1" arrows="1" fold="1" page="0" pageScale="1" pageWidth="827" pageHeight="1169" math="0" shadow="0">
            <root>
                <mxCell id="0"/>
                <mxCell id="1" parent="0"/>
                <mxCell id="7" style="edgeStyle=none;html=1;exitX=0;exitY=0.25;exitDx=0;exitDy=0;fontSize=18;fontColor=#FF8000;strokeColor=default;shape=link;" edge="1" parent="1" source="2">
                    <mxGeometry relative="1" as="geometry">
                        <mxPoint x="290" y="184" as="targetPoint"/>
                    </mxGeometry>
                </mxCell>
                <mxCell id="9" style="edgeStyle=none;shape=link;html=1;exitX=0;exitY=0.75;exitDx=0;exitDy=0;strokeColor=default;fontSize=18;fontColor=#FF8000;" edge="1" parent="1" source="2">
                    <mxGeometry relative="1" as="geometry">
                        <mxPoint x="289.20001220703125" y="259" as="targetPoint"/>
                    </mxGeometry>
                </mxCell>
                <mxCell id="11" style="edgeStyle=none;shape=link;html=1;exitX=1;exitY=0.5;exitDx=0;exitDy=0;strokeColor=default;fontSize=18;fontColor=#FF8000;" edge="1" parent="1" source="2">
                    <mxGeometry relative="1" as="geometry">
                        <mxPoint x="713.2000122070312" y="222" as="targetPoint"/>
                    </mxGeometry>
                </mxCell>
                <mxCell id="2" value="" style="rounded=0;whiteSpace=wrap;html=1;" vertex="1" parent="1">
                    <mxGeometry x="391" y="147" width="226" height="149" as="geometry"/>
                </mxCell>
                <mxCell id="3" value="&lt;font color=&quot;#ff8000&quot; style=&quot;font-size: 18px;&quot;&gt;in1&lt;/font&gt;" style="text;html=1;align=center;verticalAlign=middle;resizable=0;points=[];autosize=1;strokeColor=none;fillColor=none;" vertex="1" parent="1">
                    <mxGeometry x="406" y="163" width="42" height="34" as="geometry"/>
                </mxCell>
                <mxCell id="4" value="&lt;font color=&quot;#ff8000&quot;&gt;&lt;span style=&quot;font-size: 18px;&quot;&gt;in2&lt;/span&gt;&lt;/font&gt;" style="text;html=1;align=center;verticalAlign=middle;resizable=0;points=[];autosize=1;strokeColor=none;fillColor=none;" vertex="1" parent="1">
                    <mxGeometry x="406" y="247" width="42" height="34" as="geometry"/>
                </mxCell>
                <mxCell id="5" value="&lt;font color=&quot;#ff8000&quot; style=&quot;font-size: 18px;&quot;&gt;O&lt;/font&gt;" style="text;html=1;align=center;verticalAlign=middle;resizable=0;points=[];autosize=1;strokeColor=none;fillColor=none;" vertex="1" parent="1">
                    <mxGeometry x="569" y="204.5" width="32" height="34" as="geometry"/>
                </mxCell>
                <mxCell id="8" value="A" style="text;html=1;align=center;verticalAlign=middle;resizable=0;points=[];autosize=1;strokeColor=none;fillColor=none;fontSize=18;fontColor=#FF8000;" vertex="1" parent="1">
                    <mxGeometry x="250" y="165" width="30" height="34" as="geometry"/>
                </mxCell>
                <mxCell id="10" value="B" style="text;html=1;align=center;verticalAlign=middle;resizable=0;points=[];autosize=1;strokeColor=none;fillColor=none;fontSize=18;fontColor=#FF8000;" vertex="1" parent="1">
                    <mxGeometry x="256" y="247" width="30" height="34" as="geometry"/>
                </mxCell>
                <mxCell id="12" value="Y" style="text;html=1;align=center;verticalAlign=middle;resizable=0;points=[];autosize=1;strokeColor=none;fillColor=none;fontSize=18;fontColor=#FF8000;" vertex="1" parent="1">
                    <mxGeometry x="729" y="204.5" width="30" height="34" as="geometry"/>
                </mxCell>
                <mxCell id="13" value="&lt;font style=&quot;font-size: 16px;&quot;&gt;输入端口（如in1,in2信号）只能是net；&lt;br&gt;但输入端口可以由net/register驱动&lt;br&gt;&lt;/font&gt;" style="text;html=1;align=center;verticalAlign=middle;resizable=0;points=[];autosize=1;strokeColor=none;fillColor=none;fontSize=18;fontColor=#FF8000;" vertex="1" parent="1">
                    <mxGeometry x="117.5" y="318" width="295" height="55" as="geometry"/>
                </mxCell>
                <mxCell id="14" value="输出端口（如O）可以是net/register类型；&lt;br&gt;但输出端口只能驱动net" style="text;html=1;align=center;verticalAlign=middle;resizable=0;points=[];autosize=1;strokeColor=none;fillColor=none;fontSize=16;fontColor=#FF8000;" vertex="1" parent="1">
                    <mxGeometry x="585" y="65" width="318" height="50" as="geometry"/>
                </mxCell>
            </root>
        </mxGraphModel>
    </diagram>
</mxfile>